<svg xmlns="http://www.w3.org/2000/svg" width="896.25" height="1200" viewBox="0 0 717.000000 960.000000"><g transform="matrix(.1 0 0-.1 0 960)"><path d="m3227 8209c-102-24-188-96-234-197-23-49-25-63-21-148 3-52 1-97-4-102-16-16-29-92-22-128 8-41 85-131 120-140 23-6 24-9 24-99v-93l-38-34c-97-88-211-157-258-158-12 0-42-11-67-25l-46-24-13 27c-18 37-62 56-134 57-54 0-65-3-96-31-32-28-43-32-120-36-83-5-149-28-176-60-6-8-19-45-30-82l-19-69-224-38c-123-20-225-36-227-34-2 2-10 32-18 66-49 213-158 437-252 520-46 41-108 69-152 69-95 0-256-65-319-130-103-107-188-392-180-610l3-65-135-21c-74-12-154-24-180-28-35-5-49-13-62-35-27-46-22-97 12-132 36-36 47-36 230-4 78 14 147 23 152 20 5-4 9-19 9-35 0-35 26-164 42-205 21-56 90-189 120-233 44-63 106-122 153-143 32-15 65-19 160-19 66 0 136 5 156 10 164 46 275 296 284 639l4 145 228 38c125 20 231 38 235 38 3 0 10-15 13-32 13-61 46-138 72-168 29-36 77-185 94-299 10-62 10-102 1-175-17-133-15-163 9-198 12-16 20-30 18-32-2-1-53-8-112-14-119-11-141-22-171-87-18-38-21-108-6-151 7-19 60-71 150-148l140-118-2-371-3-370-205-47c-113-26-240-56-284-65l-78-18-25-54c-35-77-29-135 20-180 72-66 48-68 723 77 333 72 608 129 611 127 2-3 12-46 23-97 20-103 41-138 88-154 25-9 38-24 61-71 15-33 46-85 67-115l38-55-1-110c-2-170-15-231-72-350-61-129-104-300-104-420 0-65 10-118 53-285 57-218 57-214 50-492 0-27-1-69-1-95 0-27-1-66-2-88-1-29 10-63 41-125 32-64 47-109 57-175 25-159 39-195 92-243 79-73 138-102 208-102 33 0 85 7 115 15 30 8 68 15 83 15 16 0 38 10 53 25 14 14 32 25 40 25 56 0 114 80 114 158 0 39-6 49-79 125-106 110-254 339-305 472l-38 100 11 86c6 47 11 111 11 142 0 31 1 57 3 57 33 1 1062 273 1068 282 21 33 30 118 19 172-18 89-71 122-173 107-64-10-496-109-509-117-5-3-8 193-8 435 0 413 1 441 18 441 9 0 184 40 387 88l370 87 3 98c1 53 5 97 8 97 3 0 50-30 105-66l101-67-7-51c-4-28-14-80-22-116-21-90-21-304 0-393 19-78 41-124 102-212 29-42 47-84 55-122 18-83 6-255-25-378-29-115-46-275-34-319 9-31 50-80 84-99 12-7 88-14 185-17l165-5 59-40 59-40h206c203 0 207 0 263 27 65 30 98 73 98 126 0 69-25 87-176 127-108 29-179 61-209 95-11 13-44 40-73 62-31 23-86 84-137 152l-85 113v109c0 60 5 152 11 204 7 65 6 181-1 370-6 151-12 370-14 485-3 196-5 216-30 291-14 45-35 92-45 106-26 33-120 81-207 107-63 19-88 35-234 152-90 72-185 141-212 155-39 20-48 29-48 50 0 34-58 90-108 104-20 5-64 10-97 10-64 0-320 18-372 26-27 4-32 9-35 37-3 29-7 32-43 37-39 5-40 6-42 50-1 25-2 73-2 108 0 47-5 71-22 98-23 37-23 59-3 255 4 42 2 73-5 87-9 17-7 27 8 54 20 35 36 99 46 186l7 52 30-26c17-14 56-38 87-54 47-23 65-41 102-97 41-61 55-73 128-112 44-24 81-47 81-51 0-4 11-19 25-34 22-24 30-26 104-26 44 0 92 5 107 10 23 9 26 14 21 44-4 25 2 51 24 96 35 75 84 211 93 261 6 32-5 121-60 489-19 134-18 173 10 228 33 67 38 97 23 134-24 62-15 75 66 88 40 7 143 24 230 39 157 27 158 27 162 7 2-12 9-50 15-84 38-210 165-443 281-514 79-49 284-66 364-29 88 40 183 189 224 353 27 105 45 276 38 369l-5 75 247 39c135 21 256 42 269 46 19 7 22 16 22 56 0 64-29 113-67 113-16 0-131-18-258-39-126-22-230-39-231-38 0 1-10 42-22 91-70 282-233 496-378 496-21 0-81-7-133-15-150-25-214-70-276-194-64-126-105-304-105-453 0-72-2-78-20-78-18 0-314-50-391-66-23-4-28-1-34 23-3 15-16 38-27 51-30 31-117 30-223-3-66-20-92-23-155-18-111 8-164-24-178-108-7-39-11-44-37-47-16-2-133-20-261-41-213-34-236-36-287-24-70 15-157 59-157 77 0 8 15 23 34 34 59 35 106 154 106 266-1 115-35 325-69 410-32 83-92 170-143 209-68 52-209 78-301 56m225-61c133-57 229-269 244-539 7-120 3-142-38-241-25-59-68-87-140-95-44-4-70 1-151 30-141 51-147 56-147 122 0 42-4 56-18 64-16 9-18 4-18-60-1-67 0-71 31-94 17-14 67-41 111-61 63-30 94-38 157-42 42-2 77-8 77-12 0-4-7-26-15-49-11-34-12-41-1-41 8 0 19 13 26 29l12 29 60-32c34-17 55-32 47-33-253-43-466-70-486-62-37 14-96 12-90-3 2-7 15-12 28-11 22 3 22 2 4-6-21-9-445-74-450-69-1 2-5 12-9 24-5 18 3 25 62 52 38 18 74 32 81 32 35 0 226 123 274 178 14 16 19 43 23 128 6 121 4 126-60 159-21 10-49 35-62 54-49 72-23 172 36 141 26-14 45-3 29 16-6 8-17 14-25 14-7 0-18 19-25 42-21 78 9 199 66 266 81 94 240 124 367 70m2493-87c150-68 281-364 305-690 28-381-83-716-256-769-21-6-40-9-43-6-3 2 14 23 36 47 52 54 84 112 121 217 43 125 56 215 55 390-1 245-36 406-131 599-36 74-62 111-115 163-65 65-67 68-40 68 15 0 46-9 68-19m-139-21c79-39 158-146 221-300 121-294 117-711-9-967-32-65-99-136-144-153-37-14-99-12-139 4-73 31-173 163-231 306-26 65-79 278-71 287 3 2 74 15 158 29 85 14 164 29 176 34 41 17 42 102 0 152l-22 27-140-24c-77-14-151-27-164-30l-24-6 6 113c16 261 100 463 219 522 63 31 108 33 164 6m964-484c6-8 10-25 8-38-3-22-14-25-236-62-128-21-235-37-237-34-2 2-6 19-7 38l-3 33 200 32c110 18 209 35 220 38 34 8 42 7 55-7m-5505-165c212-98 387-620 345-1028-20-192-80-362-153-435-35-36-122-77-134-64-4 3 7 21 24 39 169 178 224 663 117 1035-60 208-179 392-286 439-20 9-35 20-32 25 9 14 78 8 119-11m4477-15c6-14 8-31 6-38-4-9-129-34-384-76-209-35-390-66-404-69-25-4-25-3-22 36l4 40 66 11c37 6 207 35 377 65 171 29 318 54 328 54 9 1 22-10 29-23m-885-8c32-36 46-94 40-167-3-37-11-78-17-93-13-28-48-48-82-48-12 0-33-10-46-22l-24-23-25 29c-17 21-27 26-35 18-11-11 7-49 40-81 8-8 11-23 8-35-15-52-18-76-8-76 19 0 36 33 42 79 4 41 9 48 40 63 19 9 50 19 68 23 31 6 32 6 32-27 0-18-11-53-25-77-33-57-32-97 6-345 27-175 31-218 26-331-5-128-6-132-56-253-28-68-51-130-51-138 0-9-13-15-37-16-85-3-116 5-133 36-8 15-45 42-92 66l-78 41-47 92c-36 70-48 87-51 69-3-22-4-22-71 13-37 20-81 50-97 68l-29 32 3 163 3 162h30c44 0 38 28-7 32l-37 3-23 92c-26 102-70 201-96 217-27 16-31 2-9-35 26-45 51-145 51-204 0-39-5-52-30-75-77-72-200-96-261-51-47 35-59 12-14-28 32-28 42-31 99-31 101 0 182 37 220 102 23 38 36 23 36-42v-45l-19 24c-25 33-34 12-14-38 20-50 9-101-25-116-29-13-28-25 2-25 14 0 32 10 40 22 14 20 15 9 10-128-3-82-10-169-15-194-6-25-35-84-65-131-50-80-67-129-45-129 5 0 14 13 21 29 6 16 20 37 31 47 18 17 19 16 19-17 0-19-7-70-16-114-9-47-14-117-12-169 3-74 0-90-14-99-25-16-30-5-19 42 6 27 5 41-1 41-20 0-37-35-38-77 0-41-1-42-53-61-101-38-169-45-351-39-94 4-190 10-213 13-39 6-43 10-57 50-19 55-73 134-91 134-21 0-19-20 4-44 24-25 64-126 51-126-5 0-34 9-65 21-45 17-59 28-79 62-21 38-23 51-19 133 7 116-11 180-72 263-42 57-45 65-45 124-1 83-23 229-54 357-14 58-26 113-26 123 0 31 18 9 40-50 31-83 52-106 130-148 69-36 74-37 158-33 78 3 96 7 176 46 105 50 208 117 253 164 37 38 63 104 63 157 0 66-91 224-119 207-5-4 8-40 30-82 32-62 39-85 39-133 0-49-5-65-30-99-58-80-192-156-343-194-94-24-163-20-225 11-46 23-68 51-107 134-30 64-63 89-90 67-8-7-15-22-15-34 0-12-16-54-35-95-39-81-41-91-20-91 8 0 24 19 36 43 12 23 24 38 25 32 2-5 20-73 40-150 40-149 52-301 26-327-9-9-13-7-17 8-30 93-121 270-207 404-39 61-118 214-118 229 0 6 25 29 55 51 47 35 57 48 70 95 17 57 20 60 96 70l47 7 5-39c4-21 5-49 4-63-1-17 4-26 17-28 17-4 18 1 14 67l-5 71 31 5c17 3 293 50 613 104 578 97 582 98 630 82 41-14 52-23 75-67 17-31 32-80 38-125 6-40 15-78 20-83 13-13 43 2 36 19-8 21 7 19 40-7 46-36 61-57 100-146l37-82-27-68c-16-37-37-91-49-119-16-42-24-53-42-53-44 0-102 95-140 227-6 23-35 40-35 20 0-20 52-170 68-197 24-39 65-81 87-90 14-5 26-28 39-74 12-43 24-66 33-66 12 0 14 7 7 38-16 70-7 123 40 232 75 174 103 326 79 432-13 63-17 69-55 90-71 40-83 65-82 174 2 110 6 117 90 161 30 15 54 34 54 41 0 16 0 16-62-9l-52-20-18 23c-10 13-18 26-18 31 0 17-20 5-20-13 0-11-7-20-15-20-12 0-13 5-4 27 16 43 27 51 86 64 43 10 59 10 72 1 9-7 31-19 49-28 38-17 63-9 35 11-10 7-16 15-13 18 12 11 168 56 196 57 19 0 38-8 51-22m-3698-38c119-60 244-293 285-533 83-474-58-937-284-937-126 0-271 188-334 431-26 102-38 169-29 169 16 0 368 62 374 66 5 3 14 22 20 43 10 33 8 45-9 85-12 25-28 49-36 52-9 3-94-7-191-23l-175-28v95c0 289 109 548 248 590 46 14 91 11 131-10m3240-162c-2-64 53-51-839-200-453-75-825-136-827-134-2 1 0 23 3 48l6 45 107 16c326 50 1388 218 1456 230 44 8 83 15 88 16 4 1 7-9 6-21m-1825-68c27-10 50-47 59-96 5-26 2-33-19-42-41-19-30-41 24-44l47-3 3-57c5-103-9-133-114-235-52-50-94-97-94-103 0-12 15-6 42 18 15 13 20 7 52-58 39-79 115-208 182-311 56-85 81-143 110-254 28-107 29-128 8-208-12-49-13-69-5-98 14-48 7-66-33-79-25-8-47-7-92 5-32 8-80 15-106 15-26 0-58 5-72 11-27 13-159 187-195 256-19 39-20 52-15 210 5 166 5 170-29 310-30 123-39 147-70 184-29 33-85 157-74 164 13 10 247 60 247 53 0-5-4-18-10-28-5-10-7-26-4-34 11-29 31-17 38 22 3 21 15 47 26 57 24 22 26 62 3 87-25 28-45 23-41-9 3-27 2-28-48-28-71 1-98 22-125 95-24 66-43 90-61 72-7-7-7-21 2-47 7-20 10-38 8-39-1-2-18-6-36-9-33-7-34-7-27 26 4 17 15 51 25 74 21 48 20 47 160 63 76 9 100 16 120 34 39 36 69 43 114 26m1806-86c0-78 20-123 72-165 28-21 53-39 58-39 16 0 31-115 22-175l-8-60-23 45c-46 87-75 121-129 153-51 30-57 37-67 82-16 68-43 123-71 142-13 8-24 19-24 23 0 7 96 25 148 29 19 1 22-4 22-35m-2125-194c4-11 21-28 38-37l32-17-65-12c-120-23-592-95-596-91-2 2-5 21-7 42l-2 38 200 33c110 18 236 39 280 47 108 20 113 20 120-3m-1125-163c0-1 4-16 9-33 5-17 5-37 1-43-8-14-714-133-736-124-17 6-27 38-19 62 5 16 53 26 363 78 379 64 382 64 382 60m1845-778c19-36 16-42-17-37-22 3-24 6-16 36 5 17 11 32 13 32 2 0 12-14 20-31m52-119c7-21 12-82 11-150l-2-115-52-105c-52-104-53-107-65-239-14-161-9-241 20-306 12-26 20-49 19-51-2-1-30 22-63 53-59 54-516 448-688 593-49 41-95 87-103 102-35 67-3 151 62 161 36 5 179 21 197 22 5 0 38-40 75-90 37-49 81-97 97-106 33-19 283-54 318-45 37 9 62 63 63 136 0 36 4 88 9 117 7 46 11 52 34 56 46 7 56 3 68-33m1053-290c0-23-31-68-73-107-81-75-217-98-522-90-206 5-287 18-320 50-42 42-68 12-90-105-20-108-18-151 8-156 15-3 17 6 17 75 0 64 14 153 23 153 2 0 20-9 41-19 21-11 63-23 94-27 32-4 60-12 64-18 4-6 8-28 8-49 0-33-7-45-49-86-28-26-80-64-116-85-88-52-125-95-125-146 0-69 33-60 34 9 1 35 3 37 108 91 58 30 116 64 128 75 40 36 73 104 73 149l-1 41h171c243 0 413 36 499 105l38 31-6-55c-6-46-4-56 8-56 9 0 21 7 28 15 7 8 21 15 31 15 15 0 17-6 12-35-5-31-3-36 21-45 15-5 102-15 194-20 222-14 316-26 352-45 45-23 36-35-12-18-94 33-247-7-322-84-97-98-186-377-162-507 5-24 23-53 50-81 23-25 37-45 31-45-23 0-102 69-197 170l-95 102-59-12c-97-19-94-17-94-65 0-24 9-67 20-94 27-71 16-94-19-39-57 90-144 143-250 154-156 17-341-71-388-185-15-36-18-113-8-211l6-55-20 23c-12 13-26 43-31 65-6 23-20 69-30 102-11 33-33 127-50 209-25 118-42 172-82 260-59 127-67 180-50 331 8 69 20 112 53 185 23 52 43 97 45 99 1 1 27-9 57-23 103-51 227-70 462-70l210-1 95 33c84 29 159 71 168 94 5 12 22 10 22-2m-1481-698c1-212 4-274 14-278 7-2 100 16 207 41 107 25 199 45 205 45 12 0 58-158 49-171-3-5-13-9-22-9-9 0-278-56-597-124l-580-125-42 19c-50 22-68 54-59 102 12 64 13 65 321 137l290 68 3 372 2 371 104-87 104-88 1-273m2177 257c133-69 209-122 357-250 49-42 113-76 212-112 135-48 142-54 164-121 29-88 31-107 37-376 3-135 8-342 12-460 5-147 3-270-6-390-20-266-22-258 80-381 96-118 253-281 283-297 11-5 64-21 117-36 159-42 220-83 181-122-61-61-200-84-388-65-93 9-120 16-176 45-89 46-162 60-271 51-100-7-138 6-159 57-17 41-5 166 27 290 25 91 28 122 28 268 1 181-7 215-72 298-42 53-70 112-87 184-21 91-19 266 5 390 11 57 20 113 20 125v22l46-19c25-11 50-20 55-20 26 0 0 24-77 72-47 29-129 82-182 117-179 119-198 123-439 107l-121-9-51 37c-86 64-104 107-85 205l7 32 76-6c42-3 93-8 114-11 29-5 37-2 37 10 0 23-32 36-125 48-47 7-85 15-85 19 0 20 81 212 99 236 50 63 151 111 238 112 20 1 68-18 129-50m-2022-122c156-141 233-207 244-207 11 0 27-58 19-66-3-3-74-20-158-39-85-18-166-36-181-40l-28-7v221c0 122 3 221 6 221 3 0 47-37 98-83m1296-339c19-24 45-52 59-63 14-11 51-43 81-72 87-81 97-83 364-89 127-3 240-7 251-9 18-4 20-13 22-99 2-83 1-95-15-100-9-3-200-48-425-101-224-53-414-98-423-102-13-5-14 0-7 33 17 81 1 512-21 573-21 57-21 59 12 64 62 9 69 7 102-35m-342-27c110-56 159-134 188-296 14-78 21-261 11-272-3-3-15 12-25 34-27 51-90 123-108 123-24 0-7-40 37-86 46-47 57-79 65-189 6-70 3-90-20-160-15-43-47-116-71-160-24-44-51-108-59-142-7-34-22-77-32-95-62-118-86-195-115-369-12-76-9-109 11-109 17 0 36 56 60 175 21 111 44 193 63 230 10 19 10 19 18 0 11-28 10-243-1-285-5-19-23-73-40-120-24-65-33-112-40-200-6-63-15-155-21-205-10-87-10-93 16-165 43-117 94-214 187-355 54-81 105-146 137-173 84-71 98-125 50-187-25-31-51-32-64-2-6 12-19 22-30 22-18 0-20-6-17-49l3-49-42 6c-27 3-56 0-77-9-19-8-63-14-97-14-56 0-69 4-121 39-62 42-94 83-94 123 0 14-8 49-19 79-10 31-22 80-26 110-4 34-24 88-53 145-45 90-46 92-32 133 10 32 11 52 3 88-9 39-8 55 6 93 31 80 10 223-83 575-33 122-37 149-31 209 10 106 39 204 105 357 55 126 63 151 72 242 5 56 8 136 5 177-4 70-8 82-61 170-70 117-82 158-91 297-8 124-1 149 57 198 86 72 293 109 376 66m341-1092c-1-247 1-452 4-455 3-3 131 22 284 55 153 34 296 61 319 61 61 0 77-17 82-86 7-109 23-99-304-183-159-41-388-100-509-132-121-32-222-56-224-54-7 7 30 138 57 205 25 60 27 75 27 210 0 80-2 183-5 230l-4 85 74 150 74 150 4 97 4 96 47 10c25 5 52 10 59 11 11 1 13-85 11-450"/><path d="m3164 7305c-15-38 82-165 126-165 31 0 24 17-20 46-26 18-49 45-66 80-28 58-32 62-40 39"/><path d="m4644 6789c-4-8-7-29-5-49 1-19-5-66-14-104-13-56-14-71-3-77 28-18 42 18 46 122 4 97-5 138-24 108"/><path d="m3863 6453c-7-2-13-12-13-21 0-33-15-45-40-32-29 16-38 5-15-20 10-11 31-20 47-20 24 0 32 6 41 30 14 36 24 37 71 5 43-29 46-30 46-11 0 17-87 76-109 75-9 0-22-3-28-6"/><path d="m3637 6409c-10-6-32-40-49-75-27-56-38-69-80-90-55-28-79-64-58-89 20-25 41-19 38 11-3 23 4 31 45 53 64 36 76 50 98 113 18 52 19 53 54 50 36-3 44 5 23 26-15 15-47 15-71 1"/><path d="m3760 6384c0-6 9-32 20-57 21-47 19-127-4-146-6-5-40-17-76-26-39-10-91-34-130-59-136-90-172-97-196-41-8 19-19 35-24 35-20 0-22-29-3-54 58-79 158-73 243 13 26 26 55 44 83 51 99 24 118 32 133 55 19 30 29 92 20 137-6 33-65 115-66 92"/><path d="m4725 6320c-4-6-4-27 0-46 8-44-13-189-33-229-8-16-28-45-44-63-31-37-32-59-2-54 29 6 55 32 75 77 34 78 51 313 22 322-6 2-14-1-18-7"/><path d="m3085 6250c-9-14 10-45 40-64 37-24 31-36-21-36-53 0-81 12-111 48l-23 27v-35c0-19 4-40 8-46 25-38 112-45 172-14 22 11 58 20 80 20 27 0 43 5 47 15 8 23 1 26-68 34-50 6-67 13-85 34-25 30-30 32-39 17"/><path d="m3853 6244c-3-9 1-31 10-50l16-33 63 5c62 6 63 5 80-25 25-45 78-37 78 12 0 16-3 17-15 7-12-10-19-7-38 16-20 23-34 28-86 32-54 4-64 8-71 28-11 28-28 31-37 8"/><path d="m3100 6077c0-13 6-29 12-35 10-10 10-15-2-22-32-21-68-11-99 27-24 28-31 33-31 19 0-25 37-84 60-96 14-7 33-5 66 6 44 15 50 15 75 0 36-21 56-20 68 3 12 21 5 31-22 31-27 0-73 29-88 56-17 33-39 39-39 11"/><path d="m3830 6008c0-18 4-49 9-69 10-42-1-67-42-100-26-20-36-21-107-15-75 6-80 5-106-19-31-29-64-32-99-9-26 17-61 12-50-6 11-17 83-50 111-50 14 0 37 9 51 20 17 13 41 20 69 20 72 0 144 20 177 49 25 23 31 37 35 82 4 56-17 129-37 129-6 0-11-15-11-32"/><path d="m3420 5925c-28-30-58-32-110-5-49 25-52 25-48-1 7-50 145-81 181-41 17 19 24 72 9 72-5 0-19-11-32-25"/><path d="m4723 5943c-27-10-13-33 20-33 38 0 48 6 40 26-5 14-36 17-60 7"/><path d="m3885 5860c-18-29 45-89 75-70 9 6 3 17-23 44-40 39-43 41-52 26"/><path d="m3110 5850c0-18 37-84 58-103 26-24 81-31 111-15 34 19 23 34-23 30-35-4-42 0-86 47-48 52-60 59-60 41"/><path d="m3468 5734c-11-10 13-64 35-79 24-17 77-20 77-5 0 6-8 13-17 17-10 3-34 21-54 40-19 18-38 31-41 27"/><path d="m3841 5644c-25-32-28-72-5-81 19-7 30 9 39 55 9 48-7 60-34 26"/><path d="m3484 5596c-9-23 3-76 26-113 23-38 55-60 98-69 49-10 40 16-18 51-50 29-59 44-72 119-4 25-26 32-34 12"/><path d="m2367 6599c-6-46-15-59-43-63-28-4-23-31 7-34 37-4 63 29 63 85 1 59-19 68-27 12"/><path d="m2534 6294c-8-30 16-156 48-254 21-66 67-125 91-117 23 7 17 32-14 52-17 11-37 32-45 47-20 37-44 171-44 241 0 44-3 57-15 57-8 0-18-12-21-26"/><path d="m2753 5660c-12-5-27-18-33-30-18-33 14-37 55-5 48 36 34 57-22 35"/><path d="m3955 5250c-22-10-78-27-125-38-116-27-282-116-364-196-35-33-56-60-49-63 21-8 245 67 335 113 50 25 126 53 175 65 99 23 119 34 77 45-47 12-131-13-274-80-223-107-241-108-88-5 89 60 182 100 269 114 62 10 119 35 119 51 0 19-27 17-75-6"/><path d="m4106 5114c-39-51-93-201-83-228 4-10 15-16 24-14 14 3 19 17 24 70 4 54 13 78 47 135 23 38 42 72 42 76 0 19-23 2-54-39"/><path d="m3520 4900c-69-4-133-10-143-15-18-7-37-35-37-53 0-21 34-22 56-1 33 31 96 41 207 34 93-7 97-6 97 13 0 19-20 34-43 30-7-1-68-4-137-8"/><path d="m5225 4607c-15-23-14-30 3-94 35-124 85-199 117-173 21 17 19 24-8 39-42 22-61 69-67 160-5 91-18 109-45 68"/><path d="m4841 4486c-15-18 13-36 58-36 45 0 80-17 126-59 51-47 70-58 127-70 52-12 102-2 106 22 3 14-6 17-56 17-47 0-66 5-93 25-85 62-127 87-173 100-62 19-80 19-95 1"/><path d="m5359 3705c-2-5-3-47-3-93-1-80-2-83-34-113-18-17-30-35-27-40 10-16 51-10 69 10 17 18 36 108 36 167 0 30-37 91-41 69"/><path d="m5332 2887c-80-85-51-199 51-201 36-1 42 2 42 19 0 15-11 24-42 33-23 7-44 20-47 28-3 7 4 35 14 60 31 72 22 103-18 61"/><path d="m6000 2530c0-5 8-10 19-10 10 0 30-9 44-20 31-25 37-25 37 0 0 10-9 24-19 30-25 13-81 13-81 0"/><path d="m3668 4123c-108-86-176-173-137-173 19 0 189 164 189 182 0 25-13 22-52-9"/><path d="m3610 3626c0-34 25-50 77-50 32-1 49 4 56 16 16 24 7 28-38 18-36-9-42-7-60 15-26 31-35 32-35 1"/><path d="m3390 3383c0-67 17-174 29-186 5-5 16-7 24-4 13 5 13 11 0 49-9 27-13 69-11 113 3 66 2 70-19 73-21 3-23 0-23-45"/><path d="m3473 2226c-35-35-44-51-41-73 4-36 37-38 55-4 6 14 28 39 47 57 23 21 34 38 30 48-11 28-46 17-91-28"/><path d="m3814 1646c-6-16 22-62 45-71 14-5 41 11 41 25 0 15-35 48-58 55-15 4-24 2-28-9"/><path d="m3680 1571c-34-9-36-54-2-59 46-7 95 47 56 62-18 7-19 7-54-3"/></g></svg>