<svg xmlns="http://www.w3.org/2000/svg" width="820" height="1200" viewBox="0 0 656.000000 960.000000"><g transform="matrix(.1 0 0-.1 0 960)"><path d="m3176 9149c-144-36-328-190-388-326-54-122-19-476 71-715 44-115 79-137 177-111 77 21 89 16 120-48 38-78 39-86 4-104-18-9-38-31-46-50-8-21-37-51-69-75-93-69-127-128-140-242-5-46-16-70-57-130-71-103-88-145-95-241-6-88 13-189 44-236 11-17 17-54 19-116 2-49 6-144 9-210 10-227 11-217-22-281-51-98-112-249-128-316-10-41-17-139-20-283-9-371-29-569-66-630-10-16-60-71-111-122l-93-91-140 30-140 31-1 131c-1 170-25 272-100 424-47 96-67 126-132 191-118 119-249 171-401 158-245-20-475-236-586-549-15-43-33-78-39-78-6 0-112 22-236 50-124 27-232 50-241 50-46 0-89-113-57-151 8-11 94-35 243-69 127-28 239-54 250-56 19-5 20-12 17-143-5-222 40-391 148-554 102-154 225-237 379-256 105-13 193 2 291 50 184 91 362 328 420 560l12 46 86-20c92-21 112-31 112-53 0-8 11-31 25-52 14-21 32-61 40-89 15-52 52-93 83-93 9 0 24-8 35-17 14-14 38-18 96-19 60 0 84-5 111-22 19-12 51-22 71-22h35l13-147c7-82 26-231 42-332 16-101 29-220 29-263 0-52 11-127 30-216 42-188 47-204 91-309 38-89 40-98 49-255 11-169 27-286 60-423 132-552 172-870 122-960-15-28-202-210-290-282-39-33-101-75-137-94-104-53-135-93-150-193-7-43-5-46 42-96 55-59 89-80 133-80 27 0 30-3 30-31 0-47 47-89 99-89 23 0 41-4 41-10 0-14 55-40 84-40 14 0 48-9 76-20 62-24 174-27 227-5 19 8 46 15 59 15 36 0 110 31 188 78 98 59 200 96 351 126 147 30 209 60 238 116 24 46 18 124-22 285-16 66-36 170-45 230-36 258-31 346 30 584 20 78 39 185 45 255 13 140 6 370-15 466-20 90-94 311-152 455l-48 120v160c1 139 4 173 27 260 28 107 82 385 92 475l7 55 56 27 56 26 93-21 93-21-7-36c-13-64-6-281 12-365 21-102 72-237 116-311 47-80 140-177 208-218 94-57 184-79 304-74 116 5 181 25 279 84 73 45 192 155 255 237 54 70 128 207 158 293 13 36 25 67 27 70 3 2 92-16 198-41 106-25 200-45 209-45 19 0 62 42 80 77 15 30 14 66-5 112l-16 40-186 44c-103 25-196 47-206 49-18 3-19 14-21 168-2 141-6 179-28 261-61 229-183 409-335 492-65 35-189 67-261 67-277-1-571-251-703-598-28-72-35-83-53-79-11 2-62 13-112 23l-93 19-7 45c-18 115-8 187 46 333 76 205 90 358 50 545-24 112-31 126-94 207-59 75-82 127-105 240l-19 90 27 40c23 35 28 54 33 145 6 102 8 110 72 256 102 232 119 338 91 566-15 119-15 152-5 217 7 42 15 135 18 206 5 114 3 140-16 210-32 115-59 156-144 215-106 73-131 97-185 180-27 41-92 125-146 185-160 181-179 242-134 435 19 84 20 103 10 171-29 202-130 367-261 427-44 20-74 26-150 28-53 2-114-1-135-7m254-64c54-19 80-43 131-117 50-73 95-185 108-270 10-59 8-76-14-162-30-116-31-136-5-217 25-80 73-151 178-265 45-49 104-125 130-169 47-79 56-88 191-184 73-53 102-97 131-205 19-67 21-93 15-185-8-132-24-196-64-261-17-28-31-53-31-56 0-4 16-4 35-1 31 5 35 3 35-16 0-11 5-83 11-159 14-186 5-244-72-420-89-205-91-212-93-324l-1-100-39-47c-44-53-55-93-56-192-2-172-41-285-151-431-74-98-121-194-150-304-13-47-24-87-26-89-1-2-9 2-18 9-31 26-29-20 4-83 38-73 48-135 31-196-9-33-32-65-96-132-74-79-84-94-84-126 0-24 8-45 22-60 25-27 64-32 54-7-5 14-1 15 31 9 21-3 41-10 46-14 12-12-23-100-46-116-21-15-101-20-131-9-9 3-31 32-50 63-19 31-45 66-57 76-35 33-52 74-38 91 18 22-4 42-26 24-24-20-18-64 19-117 18-27 43-68 55-91l21-42h-25c-20 0-29 9-46 45-11 24-41 60-65 80-40 33-44 40-44 81 0 49-12 56-36 19-25-38-10-80 39-116 44-31 60-55 71-102 6-26 5-27-21-21-38 9-58 28-92 89-17 29-46 70-66 91-31 35-35 43-29 77 5 29 3 37-10 37-18 0-36-30-36-59 0-10 16-39 35-63 40-49 89-137 81-145-12-13-57 10-80 40-35 46-76 150-76 192 0 27 9 45 38 78 77 84 250 363 287 462 62 164 76 252 85 515 9 280 13 303 107 530 61 147 83 183 83 137 0-14-7-44-16-66-17-43-16-92 3-98 7-3 15 8 19 24 15 69 28 93 84 157 62 70 110 150 110 186 0 36-17 21-55-46-49-87-70-108-94-94-30 15-50 100-71 295-26 243 6 477 73 519 13 8 23 4 51-23 34-33 56-35 56-5 0 8-40 57-89 109-83 87-92 99-114 172-31 97-41 184-32 265 7 54 12 67 51 108 43 46 54 70 34 70-23 0-110-94-120-129-26-92 5-313 59-419 48-96 45-109-50-192-167-148-258-188-382-172-40 5-76 6-81 2-14-14 37-39 95-46 97-11 202 26 343 120 38 26 71 44 73 42 2-2-3-41-11-86-9-45-16-97-16-116 0-36-46-98-81-109-10-4-19-13-19-22 0-20 47-9 76 18l21 20 7-68c3-37 14-123 23-190l17-122-61-143c-68-160-109-281-119-356-8-61-5-60-181-69-97-4-136-3-147 6-12 10-13 30-9 99 3 51 1 103-6 127-10 36-9 42 10 56 23 17 12 34-15 23-22-8-51 43-85 152-16 49-36 104-45 122-20 39-21 38 11 37 14 0 28 6 30 13 3 7-4 12-19 12-61 1-92 65-93 190v95l30 5c21 4 31 12 33 28 2 12-1 22-7 22-6 0-11-4-11-10 0-18-39-11-50 9-5 11-10 47-10 79 0 55 2 60 20 55 28-7 25 4-11 45-59 67-81 163-59 267 23 109 66 186 184 329 41 48 66 87 66 102 0 34-12 30-34-10-10-19-31-47-47-62l-29-28v25c0 33 46 128 78 162 15 16 43 37 63 48 25 12 47 36 68 74 33 59 61 72 61 29 0-40 25-23 28 20 6 72-59 223-104 240-8 3-46 0-84-6-50-9-75-9-93-1-52 24-103 185-139 441-25 175-20 235 28 341 49 112 212 237 344 268 67 15 179 10 240-12m-536-2792c7-16 23-63 35-106 12-43 40-115 63-160 41-79 42-85 43-177 0-76-4-102-18-123-14-22-18-45-16-115 2-70-2-97-20-142-28-69-51-232-51-375 0-129-6-146-40-110-13 14-29 25-37 25-24 0-13-38 18-63 26-20 33-35 44-98 7-41 20-91 29-113 9-21 16-40 16-42 0-9-65 18-73 31-11 21-56 19-95-5-61-37-75-115-37-206 15-38 51-47 57-16 3 16 8 17 36 10l33-9-28-51c-33-61-73-88-130-88-46 0-65 18-79 74-4 15-24 45-45 65-33 31-39 42-39 78 0 45-8 57-29 44-22-14-4-104 26-133 22-21 53-68 53-83 0-3-11-5-25-5-18 0-26 7-31 26-4 14-22 45-40 69-20 27-34 57-36 81-4 50-25 55-34 9-5-28-2-43 13-63 28-38 53-88 53-107 0-35-23-10-60 67-30 61-40 94-40 130 0 53-15 63-31 21-12-33-5-68 32-150 24-55 26-64 12-61-10 2-23 14-29 28-62 129-84 181-84 202 0 18 37 61 141 164 159 157 194 204 208 277 17 84 31 275 41 537l9 245 44 142c38 120 112 303 123 303 2 0 10-12 18-27m1225-646c17-38 44-87 61-110 36-52 64-132 91-260 31-152 11-302-66-497-35-89-47-178-36-270 4-41 7-76 6-78-2-2-95 17-206 42-112 24-218 47-235 51l-30 6 27 55c40 79 45 128 20 192l-21 53 20 101c18 89 58 187 109 267 7 11 19 4 52-31 24-25 53-51 64-59 12-8 36-35 54-61 32-45 33-50 27-105-4-32-21-110-38-173-37-137-44-249-16-277 24-24 30-13 19 37-12 56-1 122 43 252 29 83 36 120 36 179 0 62-3 77-20 92-18 15-20 29-20 152 0 102-4 143-15 165-9 17-18 30-21 30-3 0-2-39 1-87 5-57 3-103-4-131l-12-42-37 27c-20 15-43 34-49 42-20 24-15 70 11 104 14 18 46 76 72 130 47 98 48 100 55 230 4 73 8 134 9 137 2 3 6-17 10-45 4-27 22-81 39-118m-2518 89c37-8 89-26 116-39 149-76 282-276 328-496 16-77 31-271 22-294-4-12-41-6-223 34-120 27-228 49-241 49-38 0-83-51-83-94 0-43 18-84 39-90 9-3 117-28 241-56 124-29 227-54 229-56 9-9-42-150-83-229-157-306-418-453-665-376-204 63-367 293-412 581-16 101-6 321 20 432 83 363 345 640 611 647 19 0 65-6 101-13m1607-93c64 4 134 11 155 16l37 9v-63-63l-37-14c-24-8-85-13-161-13-116 0-123-1-120-19 2-13 15-23 38-29 47-12 184-3 238 17l42 15v-78c0-88-30-265-61-361-23-70-115-254-135-271-10-8-17-2-29 27-8 20-31 54-50 76-45 49-55 76-55 143 0 30-4 56-10 60-11 7-40-46-40-73 0-36 31-107 75-173 65-97 70-114 44-155-11-19-23-34-25-34-3 0-25 5-49 11-40 10-45 15-73 77-29 64-30 70-22 147 5 44 9 143 9 220 1 141 22 292 57 396 10 32 13 63 8 104l-7 57 27-17c24-16 42-17 144-12m-2593-472c125-27 229-51 231-54 8-7-17-107-25-102-5 2-107 27-227 55-120 28-227 53-236 56-31 9-16 94 16 94 7 0 116-22 241-49m4655-171c239-38 423-257 491-585 13-60 19-318 8-329-3-3-121 20-263 51l-257 56-30-29c-40-38-54-88-40-139 6-22 15-46 19-52 7-12 455-123 494-123 30 0 29-17-10-112-58-144-122-239-236-353-145-145-271-205-426-205-140 0-248 47-357 156-57 58-81 92-122 175-82 167-95 228-95 459 0 186 2 201 31 311 68 257 182 444 353 582 86 69 171 112 261 132 80 17 98 17 179 5m-3288-132l376-82-32-37c-19-20-37-43-42-52-8-13-56-4-359 67-338 79-350 83-359 108-7 20-5 33 8 52 9 14 20 26 24 26 4 0 177-37 384-82m973-213c72-16 132-29 133-31 9-6-83-114-93-110-7 2-58 15-114 27l-101 23v38c0 43 19 91 34 85 6-2 70-17 141-32m1111-245c203-44 370-82 371-84 7-7-21-136-29-136-4 0-106 23-225 51-120 27-305 70-412 94-106 24-195 46-198 48-8 9 100 118 113 113 7-3 178-41 380-86m-1088 70c7 0 12-14 12-39 0-21 7-58 15-82 20-56 11-62-85-55-113 8-118 11-71 56 21 20 46 59 56 84 15 40 22 47 39 42 12-3 27-6 34-6m950-223c105-24 194-46 198-49 14-15-307-68-412-68h-85l39 38c24 22 45 54 52 80 7 23 14 42 14 42 1 0 88-19 194-43m-943-12c68-3 70-3 77-33 10-37 26-51 80-67 42-12 43-13 46-61 5-98 35-261 64-354 26-81 30-106 25-165-5-74-4-87 37-287 24-121 44-179 66-193 5-3 10-32 10-63 0-31 7-91 16-132 10-48 18-169 23-340 9-282 18-344 81-585 41-154 68-314 76-447 9-154-7-209-84-297-104-117-193-225-225-275-22-33-47-56-82-73-27-14-84-49-125-77-73-49-211-106-258-106-13 0-37 7-53 16-24 12-30 21-27 42 3 24 10 29 67 44 72 19 91 32 74 49-8 8-19 7-40-3-60-32-134-50-148-38-10 8-12 18-6 29 5 9 11 33 15 53 8 43 44 75 120 104 35 14 85 52 173 134 68 63 153 139 189 168 95 78 99 88 98 207-3 182-56 520-130 825l-58 235-5 233-6 233-33 25c-46 36-68 87-76 172-3 40-20 113-36 162-34 103-36 120-15 200 15 57 15 60-20 178-30 106-35 143-45 304-5 101-10 187-10 192 0 4 17 5 38 1 20-4 68-8 107-10m325-102c25-3 65 0 90 6 37 8 49 7 70-6 14-9 41-20 60-24 19-4 55-13 80-20 87-23 312-14 413 17 14 4 17-1 17-28 0-43-28-192-73-393-79-352-73-422 73-870 38-115 76-250 85-300 31-160 20-347-34-610-11-56-25-153-31-215-21-239-9-386 48-600 20-74 38-164 40-198l4-64-49-47-49-47-144-28c-153-29-273-72-372-133-63-39-190-78-284-88-50-6-67-4-90 11-15 11-51 21-78 24-42 4-51 8-51 25 0 13 14 26 43 39 23 12 42 24 42 29 0 21-32 15-80-15-86-53-165-40-158 26 3 27 9 32 63 51 33 11 83 33 110 49 28 16 73 41 102 56 93 49 148 98 189 168 24 42 78 107 145 174 59 59 112 115 117 125 6 10 17 46 26 80 15 55 15 78 1 240-19 224-27 270-75 418-58 183-73 286-71 520 0 155-4 225-18 310-26 148-34 235-23 235 26 0 18 33-17 74-27 31-41 59-46 88-3 24-18 83-32 132-22 77-25 100-18 165 4 42 7 85 8 96 0 11-16 72-36 136-34 112-57 224-72 353-6 55-5 58 12 51 10-5 38-10 63-12m2210-53c214-46 558-125 587-135 8-3 5-15-8-42-14-26-19-50-15-76 4-36 3-38-17-34-12 3-202 47-422 98-255 59-405 98-412 107-30 37 3 149 40 137 7-2 118-27 247-55m680-169c17-32 12-86-11-115-26-32-34-33-55-1-14 22-15 32-5 65 11 39 34 70 51 70 5 0 14-9 20-19"/><path d="m3374 8393c7-59 6-61-37-119-28-38-71-78-120-112-78-54-93-72-58-72 23 0 125 67 163 107 41 43 98 144 98 172 0 32-20 73-39 79-11 4-13-6-7-55"/><path d="m3576 8180c-9-57-45-125-104-196-66-80-102-135-102-156 0-28 18-21 36 15 9 17 44 61 76 97 68 75 121 177 122 234 1 53-20 57-28 6"/><path d="m3460 7774c-19-9-71-20-115-25-44-5-90-16-102-24-31-20-44-48-32-66 8-11 13-9 32 13 19 24 34 29 97 37 81 11 183 48 177 64-5 17-20 17-57 1"/><path d="m3885 7710c-11-18 4-28 59-34 30-4 70-17 88-29 31-22 42-37 70-101 27-61 55-36 33 28-17 50-57 90-119 121-51 25-120 33-131 15"/><path d="m3023 7288c-34-36-51-87-63-186-9-75-9-101 4-149 22-86 32-109 58-127 27-19 38-3 14 23-8 9-23 46-32 81-23 91-15 205 20 293 31 76 31 99-1 65"/><path d="m2950 6725c0-31 26-96 43-107 7-4 31-8 55-8 43 0 81-13 94-34 4-6 17-39 28-72 25-75 43-92 112-108 39-8 56-17 63-34 19-43 43-16 25 28-12 29-17 31-103 46-42 7-52 20-62 84-16 97-51 130-137 130-67 0-88 16-88 66 0 24-5 34-15 34-9 0-15-9-15-25"/><path d="m4123 6715c-23-19-51-56-64-81-20-43-21-54-14-148 5-55 9-122 9-149 1-37 4-47 16-45 12 3 15 26 16 128 1 136 17 205 55 246 28 30 42 30 62 2 12-18 18-21 28-11 9 9 10 23 3 50-8 32-13 38-39 41-23 2-41-6-72-33"/><path d="m2960 6545c0-67 28-179 51-204 27-29 59-35 146-27 73 6 75 5 104-23 16-16 29-35 30-43 0-7 2-44 5-83 3-38 5-87 5-107 0-27 4-38 14-38 21 0 29 46 17 89-7 22-9 64-5 104 6 65 5 67-28 100-33 33-36 34-137 40-60 3-109 10-118 18-24 20-45 79-52 148-8 78-32 97-32 26"/><path d="m3512 6405c-11-14-36-32-56-40-38-16-46-32-22-41 29-11 116 55 116 88 0 25-15 22-38-7"/><path d="m3033 6274c-3-10-1-48 5-86 20-115 60-174 124-185 21-3 41-10 44-14 11-19 25-8 22 17-2 22-9 27-34 29-41 3-89 40-110 83-9 20-19 64-22 99-5 65-17 88-29 57"/><path d="m4017 6082c-18-19-26-117-11-132 18-18 31 6 37 72 7 72-1 88-26 60"/><path d="m3139 5955c-1-5-3-21-5-35-1-14-6-50-9-81-7-53-6-58 17-73 37-24 86-37 94-24 8 13-14 28-43 28-34 0-46 34-39 104 3 34 1 68-4 76-5 8-10 11-11 5"/><path d="m3319 5933c-1-4 0-18 1-31 1-12-8-39-19-58-23-39-28-88-8-81 6 2 11 10 9 17-1 6 9 25 23 42 20 24 25 40 23 71-2 22-9 42-15 45-7 2-13 0-14-5"/><path d="m1473 5619c-79-40-181-124-238-197-174-220-246-602-164-868 43-138 147-311 222-368 70-53 79-23 10 38-58 51-131 161-173 261-98 237-76 535 58 800 64 125 182 243 299 300 77 38 105 65 66 65-10 0-46-14-80-31"/><path d="m5079 4867c-263-217-389-517-389-925 0-213 40-378 138-564 41-80 62-102 76-80 2 4-9 30-26 57-47 75-96 198-126 315-24 94-27 123-27 280 1 363 87 600 295 811 52 53 108 105 123 116 24 16 26 21 15 31-12 9-27 1-79-41"/><path d="m2987 3716c-6-14 22-61 70-120 12-15 41-37 65-50 27-14 50-36 62-59 22-41 56-51 56-17 0 35-43 87-95 117-29 17-67 52-93 86-45 59-56 67-65 43"/><path d="m3222 3118c-27-30-62-107-55-125 11-28 42-14 53 25 6 20 17 46 25 56 16 21 20 66 7 66-5 0-18-10-30-22"/><path d="m2741 901c-22-14-5-28 29-23 17 2 30 10 30 18 0 16-37 19-59 5"/><path d="m3420 3711c-17-33 4-64 82-119 40-28 84-60 98-71 33-27 50-26 50 2 0 30-27 54-116 105-58 34-72 47-77 72-7 34-22 39-37 11"/><path d="m3660 3321c-30-43-76-149-84-194-6-30-4-39 10-44 22-8 40 17 48 70 4 23 21 63 37 89 48 75 39 148-11 79"/><path d="m3645 2478c-14-35 49-403 85-502 23-61 54-96 71-79 9 9 0 46-30 137-39 120-63 235-76 358-7 63-38 117-50 86"/><path d="m3920 1190c-13-25-5-55 26-97 34-45 30-73-16-123-43-46-49-60-26-60 53 0 90 42 102 116 5 32 1 46-21 78-15 22-29 55-32 73-6 38-17 42-33 13"/><path d="m3169 591c-22-18-22-20-6-26 19-8 47 10 47 31 0 19-14 17-41-5"/></g></svg>