<?xml version="1.0" encoding="utf-8"?>
<!-- Svg Vector Icons : http://www.onlinewebfonts.com/icon -->
<!DOCTYPE svg PUBLIC "-//W3C//DTD SVG 1.1//EN" "http://www.w3.org/Graphics/SVG/1.1/DTD/svg11.dtd">
<svg version="1.1" xmlns="http://www.w3.org/2000/svg" xmlns:xlink="http://www.w3.org/1999/xlink" x="0px" y="0px" viewBox="0 0 1000 1000" enable-background="new 0 0 1000 1000" xml:space="preserve">
<metadata> Svg Vector Icons : http://www.onlinewebfonts.com/icon </metadata>
<g><path d="M265.4,443.2h120.1V323.2H265.4V443.2z M292.1,349.8h66.7v66.7h-66.7V349.8L292.1,349.8z"/><path d="M265.4,622.9h120.1v-120H265.4V622.9z M292.1,529.5h66.7v66.7h-66.7V529.5L292.1,529.5z"/><path d="M445.5,349.8h270.1v66.7H445.5V349.8L445.5,349.8z"/><path d="M445.5,529.5h270.1v66.7H445.5V529.5L445.5,529.5z"/><path d="M265.4,802.3h120.1V682.2H265.4V802.3z M292.1,708.9h66.7v66.7h-66.7V708.9L292.1,708.9z"/><path d="M445.5,708.9h270.1v66.7H445.5V708.9L445.5,708.9z"/><path d="M823.7,83.6h-67.9V52.1c0-23.2-18.8-42.1-42-42.1c-23.2,0-42.1,18.8-42.1,42.1v31.5H552.9V52.1c0-23.2-18.8-42.1-42.1-42.1c-23.2,0-42.1,18.8-42.1,42.1v31.5H329.1V52.1c0-23.2-18.8-42.1-42-42.1S245,28.8,245,52.1v31.5h-68.7c-48.2,0-87.2,39.1-87.2,87.2v732c0,48.1,39,87.2,87.2,87.2h647.5c48.1,0,87.2-39,87.2-87.2v-732C910.9,122.6,871.9,83.6,823.7,83.6L823.7,83.6z M836.3,915.4H163.7V158.3h81.7v28.9c0,23.2,18.8,42.1,42,42.1c23.2,0,42-18.9,42-42.1v-28.9h139.3v28.9c0,23.2,18.8,42.1,42,42.1c23.2,0,42.1-18.9,42.1-42.1v-28.9h118.9v28.9c0,23.2,18.8,42.1,42.1,42.1c23.2,0,42-18.9,42-42.1v-28.9h80.5V915.4L836.3,915.4z"/></g>
</svg>