<?xml version="1.0" encoding="utf-8"?>
<!-- Svg Vector Icons : http://www.onlinewebfonts.com/icon -->
<!DOCTYPE svg PUBLIC "-//W3C//DTD SVG 1.1//EN" "http://www.w3.org/Graphics/SVG/1.1/DTD/svg11.dtd">
<svg version="1.1" xmlns="http://www.w3.org/2000/svg" xmlns:xlink="http://www.w3.org/1999/xlink" x="0px" y="0px" viewBox="0 0 1000 1000" enable-background="new 0 0 1000 1000" xml:space="preserve">
<metadata> Svg Vector Icons : http://www.onlinewebfonts.com/icon </metadata>
<g><path d="M899.2,10H100.8C50.7,10,10,50.7,10,100.8v798.5c0,50,40.7,90.8,90.8,90.8h798.5c50,0,90.8-40.7,90.8-90.8V100.8C990,50.7,949.3,10,899.2,10z M953.7,899.2c0,30-24.4,54.5-54.5,54.5H100.8c-30,0-54.5-24.4-54.5-54.5V100.8c0-30,24.4-54.5,54.5-54.5h798.5c30,0,54.5,24.4,54.5,54.5V899.2z"/><path d="M843.9,277.9c-0.3-1-0.4-2.1-0.8-3c-0.4-0.9-1.1-1.6-1.6-2.3c-0.8-1.2-1.5-2.4-2.5-3.4c-0.1-0.1-0.1-0.2-0.3-0.3c-0.6-0.6-1.4-0.8-2.1-1.3c-1.2-0.8-2.2-1.6-3.6-2.1c-1.2-0.5-2.4-0.5-3.6-0.7c-0.9-0.1-1.9-0.6-2.8-0.6H630.6c-10,0-18.1,8.1-18.1,18.2c0,10,8.1,18.2,18.1,18.2h155.3L531.5,583.1l-196-181.5L159.8,596.7c-6.7,7.5-6.1,18.9,1.4,25.6c7.5,6.8,18.9,6.2,25.6-1.3l151-167.8l196,181.5l274.7-305.2V500c0,10,8.1,18.2,18.2,18.2c10,0,18.1-8.1,18.1-18.2V282.2c0-0.2-0.1-0.3-0.1-0.5C844.7,280.4,844.3,279.2,843.9,277.9z"/><path d="M826.7,699.6H173.3c-10,0-18.2,8.1-18.2,18.2c0,10,8.1,18.1,18.2,18.1h653.3c10,0,18.1-8.1,18.1-18.1C844.8,707.8,836.7,699.6,826.7,699.6z"/></g>
</svg>